<?xml version="1.0" encoding="utf-8"?>
<svg xmlns="http://www.w3.org/2000/svg" height="180" preserveAspectRatio="xMidYMid meet" version="1.0" viewBox="0 0 375 135.000003" width="500" zoomAndPan="magnify">
  <defs>
    <clipPath id="fdac2d41e9">
      <path clip-rule="nonzero" d="M 1.378906 0 L 373.621094 0 L 373.621094 134.007812 L 1.378906 134.007812 Z M 1.378906 0"/>
    </clipPath>
    <clipPath id="288008f061">
      <path clip-rule="nonzero" d="M 1.378906 1 L 46 1 L 46 61 L 1.378906 61 Z M 1.378906 1"/>
    </clipPath>
    <clipPath id="375775fb74">
      <path clip-rule="nonzero" d="M 47 0.746094 L 75 0.746094 L 75 69 L 47 69 Z M 47 0.746094"/>
    </clipPath>
    <clipPath id="017f767e75">
      <path clip-rule="nonzero" d="M 166 0.746094 L 194 0.746094 L 194 69 L 166 69 Z M 166 0.746094"/>
    </clipPath>
    <clipPath id="2731ec5a25">
      <path clip-rule="nonzero" d="M 283 62.257812 L 301 62.257812 L 301 126 L 283 126 Z M 283 62.257812"/>
    </clipPath>
  </defs>
  <g clip-path="url(#288008f061)">
    <path d="M 9.183594 17.890625 C 9.183594 17.890625 11.105469 17.945312 11.054688 17.039062 C 11.003906 16.128906 9.824219 16.769531 8.96875 16.71875 C 8.113281 16.664062 6.667969 15.59375 6.777344 13.136719 C 6.882812 10.679688 8.808594 9.503906 11.480469 9.183594 C 14.152344 8.863281 19.714844 10.253906 21.800781 10.894531 C 23.882812 11.535156 29.765625 13.625 33.507812 13.515625 C 33.507812 16.183594 33.507812 28.578125 33.507812 28.578125 L 30.511719 31.519531 L 33.507812 34.296875 L 33.507812 54.546875 C 33.507812 54.546875 23.082031 55.992188 16.613281 47.335938 C 18.164062 46.320312 22.496094 44.292969 25.0625 40.65625 C 27.628906 37.023438 27.46875 34.191406 27.46875 32.109375 C 27.46875 30.023438 27.363281 16.242188 27.363281 16.242188 L 17.738281 21.527344 L 17.738281 22.332031 C 17.738281 22.332031 19.769531 22.652344 19.769531 24.679688 C 19.769531 26.710938 19.769531 40.066406 19.769531 40.066406 C 19.769531 40.066406 19.769531 42.578125 17.953125 44.074219 C 16.136719 45.570312 15.707031 45.945312 15.707031 45.945312 C 15.707031 45.945312 12.820312 42.476562 12.449219 35.527344 C 12.074219 28.582031 13.839844 22.171875 18.753906 16.292969 C 19.664062 15.546875 19.449219 14.476562 17.953125 15.222656 C 16.457031 15.96875 7.527344 19.871094 4.535156 30.34375 C 1.539062 40.816406 6.511719 51.609375 11.058594 55.136719 C 15.601562 58.664062 22.390625 62.9375 34.472656 59.089844 C 40.300781 56.578125 44.953125 50.382812 44.953125 50.382812 L 43.988281 49.3125 C 43.988281 49.3125 39.871094 53.691406 35.113281 54.335938 C 35.222656 51.398438 35.113281 34.351562 35.113281 34.351562 L 38.214844 31.359375 L 35.222656 28.472656 L 35.222656 13.832031 C 35.222656 13.832031 38.800781 14.902344 41.421875 12.335938 C 44.042969 9.773438 45.269531 7.3125 45.644531 6.351562 C 46.019531 5.390625 45.699219 4.75 44.523438 6.085938 C 43.347656 7.421875 41.796875 8.4375 38.054688 7.847656 C 34.3125 7.257812 25.972656 4.160156 22.441406 3.359375 C 18.914062 2.558594 13.515625 0.207031 6.617188 2.828125 C 2.980469 4.75 0.308594 8.0625 2.5 14.902344 C 3.355469 16.769531 6.027344 18.316406 9.183594 17.890625 Z M 9.183594 17.890625" fill="#000000" fill-opacity="1" fill-rule="nonzero"/>
  </g>
  <g clip-path="url(#375775fb74)">
    <path d="M 47.6875 4.402344 C 47.6875 4.402344 52.261719 4.039062 52.300781 9.128906 C 52.902344 7.925781 52.902344 6.84375 53.460938 5.480469 C 54.023438 4.117188 55.707031 1.433594 59.398438 0.792969 C 61.203125 0.511719 60.320312 1.515625 59.398438 2.195312 C 58.476562 2.875 56.871094 4.878906 56.871094 8.566406 C 56.871094 12.253906 56.871094 25.917969 56.871094 25.917969 L 63.445312 20.269531 L 74.113281 26.519531 C 74.113281 26.519531 74.992188 26.839844 74.113281 27.484375 C 73.230469 28.125 73.109375 28.445312 73.109375 29.246094 C 73.109375 30.046875 73.109375 49.800781 73.109375 49.800781 C 73.109375 49.800781 73.070312 58.21875 70.304688 61.984375 C 67.535156 65.753906 64.328125 68.757812 56.429688 68.476562 C 55.789062 68.4375 55.464844 67.476562 56.628906 67.355469 C 57.792969 67.234375 63.566406 65.992188 64.808594 60.601562 C 65.730469 56.414062 65.492188 52.449219 65.492188 51.007812 C 65.492188 49.5625 65.492188 30.128906 65.492188 30.128906 L 59.476562 25.921875 L 56.910156 27.886719 L 56.910156 52.96875 L 60.160156 54.53125 L 54.707031 60.824219 L 47.007812 55.175781 L 49.214844 53.414062 L 49.214844 8.492188 C 49.214844 8.488281 49.253906 5.121094 47.6875 4.402344 Z M 47.6875 4.402344" fill="#000000" fill-opacity="1" fill-rule="nonzero"/>
  </g>
  <g clip-path="url(#017f767e75)">
    <path d="M 166.964844 4.402344 C 166.964844 4.402344 171.535156 4.039062 171.574219 9.128906 C 172.175781 7.925781 172.175781 6.84375 172.738281 5.480469 C 173.296875 4.117188 174.980469 1.433594 178.671875 0.792969 C 180.476562 0.511719 179.59375 1.515625 178.671875 2.195312 C 177.75 2.875 176.144531 4.878906 176.144531 8.566406 C 176.144531 12.253906 176.144531 25.917969 176.144531 25.917969 L 182.722656 20.269531 L 193.386719 26.519531 C 193.386719 26.519531 194.269531 26.839844 193.386719 27.484375 C 192.503906 28.125 192.382812 28.445312 192.382812 29.246094 C 192.382812 30.046875 192.382812 49.800781 192.382812 49.800781 C 192.382812 49.800781 192.34375 58.21875 189.578125 61.984375 C 186.8125 65.753906 183.605469 68.757812 175.703125 68.476562 C 175.0625 68.4375 174.742188 67.476562 175.90625 67.355469 C 177.066406 67.234375 182.839844 65.992188 184.085938 60.601562 C 185.007812 56.414062 184.765625 52.449219 184.765625 51.007812 C 184.765625 49.5625 184.765625 30.128906 184.765625 30.128906 L 178.75 25.921875 L 176.1875 27.886719 L 176.1875 52.96875 L 179.433594 54.53125 L 173.980469 60.824219 L 166.28125 55.175781 L 168.488281 53.414062 L 168.488281 8.492188 C 168.488281 8.488281 168.527344 5.121094 166.964844 4.402344 Z M 166.964844 4.402344" fill="#000000" fill-opacity="1" fill-rule="nonzero"/>
  </g>
  <path d="M 95.164062 54.851562 L 87.625 50.644531 L 87.625 42.578125 C 91.085938 40.019531 102.070312 31.898438 103.382812 30.886719 C 102.140625 30.125 96.765625 23.914062 94.160156 20.425781 C 89.585938 23.953125 78.722656 30.003906 78.722656 30.003906 L 80.285156 31.367188 L 80.285156 52.046875 L 78.722656 53.488281 L 91.511719 60.78125 L 101.132812 50.683594 L 100.171875 49.722656 Z M 88.46875 25.359375 L 96.085938 34.292969 L 87.625 40.773438 L 87.625 25.878906 Z M 88.46875 25.359375" fill="#000000" fill-opacity="1" fill-rule="nonzero"/>
  <path d="M 364.65625 55.015625 L 357.117188 50.808594 L 357.117188 42.746094 C 360.578125 40.1875 371.558594 32.0625 372.875 31.050781 C 371.628906 30.292969 366.257812 24.078125 363.652344 20.59375 C 359.078125 24.121094 348.214844 30.171875 348.214844 30.171875 L 349.777344 31.535156 L 349.777344 52.210938 L 348.214844 53.652344 L 361.003906 60.949219 L 370.625 50.847656 L 369.664062 49.886719 Z M 357.960938 25.523438 L 365.578125 34.457031 L 357.117188 40.9375 L 357.117188 26.046875 Z M 357.960938 25.523438" fill="#000000" fill-opacity="1" fill-rule="nonzero"/>
  <path d="M 194.925781 27.882812 L 196.046875 28.964844 L 198.375 26.71875 L 201.941406 29.484375 L 201.941406 52.847656 L 200.578125 54.210938 L 210.722656 60.824219 L 217.699219 51.964844 L 216.539062 51.324219 L 214.492188 53.96875 L 209.640625 52.324219 L 209.640625 28.003906 L 210.601562 27.082031 L 215.855469 32.53125 L 221.1875 26.71875 L 214.8125 20.027344 L 209.117188 26.601562 L 202.023438 20.027344 Z M 194.925781 27.882812" fill="#000000" fill-opacity="1" fill-rule="nonzero"/>
  <path d="M 247.332031 47.675781 C 247.332031 47.675781 247.332031 32.171875 247.332031 30.6875 C 247.332031 29.203125 248.496094 28.523438 249.175781 28.082031 C 243.164062 25.195312 239.191406 21.75 237.507812 20.027344 C 228.605469 28.242188 222.152344 29.964844 222.152344 29.964844 C 222.152344 29.964844 222.152344 29.964844 222.152344 30.644531 C 223.714844 30.886719 223.675781 32.53125 223.675781 32.53125 C 223.675781 32.53125 223.753906 50.324219 223.753906 51.042969 C 223.753906 51.765625 222.953125 52.488281 221.949219 53.046875 C 222.671875 53.328125 230.851562 58.898438 233.457031 60.820312 C 237.347656 56.816406 248.09375 50.324219 249.175781 49.722656 C 247.292969 49.117188 247.332031 47.675781 247.332031 47.675781 Z M 240.035156 54.222656 L 239.3125 54.675781 L 231.347656 51.070312 L 231.347656 26.601562 L 232.09375 26.0625 C 232.09375 26.0625 236.238281 29.242188 240.035156 30.445312 C 240.007812 34.773438 240.035156 54.222656 240.035156 54.222656 Z M 240.035156 54.222656" fill="#000000" fill-opacity="1" fill-rule="nonzero"/>
  <path d="M 250.421875 27.921875 L 251.300781 28.921875 L 253.789062 26.636719 L 256.632812 29.285156 L 256.632812 53.246094 L 254.949219 55.089844 L 262.929688 60.820312 L 268.503906 54.675781 L 264.171875 52.367188 L 264.171875 28.28125 L 267.539062 25.796875 L 273.433594 29.886719 L 273.433594 52.886719 L 271.511719 54.328125 L 280.050781 60.816406 L 287.46875 53.003906 L 286.46875 52.042969 L 284.382812 54.285156 L 280.972656 52.28125 L 280.972656 28.679688 L 282.839844 26.859375 C 282.839844 26.859375 274.558594 22.511719 271.550781 20.023438 C 269.1875 21.984375 264.054688 26.234375 264.054688 26.234375 L 257.636719 20.222656 C 257.636719 20.226562 254.148438 24.277344 250.421875 27.921875 Z M 250.421875 27.921875" fill="#000000" fill-opacity="1" fill-rule="nonzero"/>
  <path d="M 294.621094 2.023438 C 294.621094 2.023438 298.84375 5.976562 300.394531 7.152344 C 299.058594 8.488281 294.621094 12.65625 294.621094 12.65625 L 289.058594 7.339844 Z M 294.621094 2.023438" fill="#000000" fill-opacity="1" fill-rule="nonzero"/>
  <path d="M 285.382812 28.125 L 286.746094 29.285156 L 288.832031 27.082031 L 290.878906 28.722656 L 290.878906 52.6875 L 289.273438 54.332031 L 297.816406 60.820312 L 305.074219 52.207031 L 303.910156 51.246094 L 301.824219 53.769531 L 298.375 51.765625 L 298.375 27.320312 L 299.898438 25.796875 L 292.800781 20.027344 Z M 285.382812 28.125" fill="#000000" fill-opacity="1" fill-rule="nonzero"/>
  <path d="M 306.273438 30.554688 L 306.273438 29.914062 C 306.273438 29.914062 315.230469 26.066406 321.644531 20.027344 C 323.917969 23.339844 328.328125 28.46875 328.328125 28.46875 L 322.367188 33.519531 C 322.367188 33.519531 318.332031 28.898438 316.484375 25.71875 C 315.710938 26.308594 315.710938 26.308594 315.710938 26.308594 L 315.710938 50.457031 L 323.597656 53.902344 L 327.902344 49.574219 L 329.050781 50.722656 L 319.292969 60.824219 L 306.277344 53.34375 L 306.277344 52.914062 L 308.09375 51.820312 L 308.09375 31.652344 C 308.09375 31.648438 307.480469 30.875 306.273438 30.554688 Z M 306.273438 30.554688" fill="#000000" fill-opacity="1" fill-rule="nonzero"/>
  <path d="M 330.601562 4.453125 L 330.921875 4.132812 C 330.921875 4.132812 334.824219 5.121094 335.464844 9.128906 C 335.679688 7.125 337.628906 2.074219 342.496094 1.195312 C 343.804688 1.058594 342.976562 1.675781 342.496094 2.074219 C 342.011719 2.476562 339.605469 5.789062 339.605469 9.128906 C 339.605469 12.46875 339.605469 52.445312 339.605469 52.445312 L 343.199219 54.167969 L 345.289062 51.566406 L 346.652344 52.488281 L 339.792969 60.949219 L 330.328125 55.050781 L 330.328125 54.449219 L 332.175781 52.964844 L 332.175781 9.40625 C 332.175781 9.40625 332.269531 5.707031 330.601562 4.453125 Z M 330.601562 4.453125" fill="#000000" fill-opacity="1" fill-rule="nonzero"/>
  <path d="M 153.542969 53.96875 L 153.542969 34.621094 L 156.433594 31.570312 L 153.421875 28.523438 L 153.421875 15.078125 C 154.804688 15.617188 156.265625 15.960938 157.59375 15.863281 C 161.441406 15.582031 165.171875 10.414062 165.171875 10.414062 C 165.171875 10.414062 165.171875 10.414062 164.167969 9.410156 C 162.125 11.496094 160.71875 10.816406 159.597656 10.09375 C 158.476562 9.371094 155.1875 6.765625 153.664062 5.246094 C 149.734375 8.609375 136.140625 17.464844 136.140625 17.464844 C 136.140625 17.464844 136.097656 17.464844 136.140625 18.066406 C 137.945312 17.949219 138.183594 19.914062 138.183594 19.914062 C 138.183594 19.914062 138.183594 33.738281 138.183594 39.789062 C 138.183594 45.839844 134.777344 47.644531 132.890625 48.523438 C 130.96875 46.160156 129.484375 43.195312 128.601562 39.425781 C 127.722656 35.660156 127.722656 30.289062 128.964844 23.597656 C 130.328125 16.585938 137.265625 10.652344 137.265625 10.652344 C 137.265625 10.652344 137.265625 10.652344 136.703125 9.851562 C 134.898438 10.292969 129.765625 12.9375 125.316406 17.628906 C 120.863281 22.316406 118.78125 28.808594 118.578125 32.613281 C 118.378906 36.421875 118.417969 42.953125 122.105469 49.285156 C 125.796875 55.617188 134.054688 61.386719 145.363281 60.703125 C 156.667969 60.023438 163.886719 49.242188 163.886719 49.242188 C 163.886719 49.242188 163.886719 49.242188 163.246094 48.363281 C 160.351562 50.617188 157.503906 52.785156 153.542969 53.96875 Z M 134.136719 49.722656 C 134.136719 49.722656 137.265625 48.519531 141.472656 46.113281 C 145.683594 43.710938 145.605469 39.382812 145.605469 39.382812 L 145.605469 13.136719 L 147.851562 11.492188 C 148.332031 12.125 149.835938 13.304688 151.699219 14.28125 L 151.699219 28.644531 L 148.8125 31.648438 L 151.699219 34.621094 L 151.699219 54.429688 C 150.144531 54.742188 148.425781 54.910156 146.488281 54.890625 C 138.347656 54.8125 134.136719 49.722656 134.136719 49.722656 Z M 134.136719 49.722656" fill="#000000" fill-opacity="1" fill-rule="nonzero"/>
  <path d="M 187.4375 90.527344 L 188.609375 91.660156 L 191.035156 89.3125 L 194.757812 92.203125 L 194.757812 116.636719 L 193.335938 118.0625 L 203.921875 124.980469 L 211.203125 115.71875 L 209.988281 115.042969 L 207.855469 117.8125 L 202.792969 116.09375 L 202.792969 90.652344 L 203.796875 89.691406 L 209.277344 95.390625 L 214.84375 89.3125 L 208.191406 82.3125 L 202.25 89.1875 L 194.84375 82.3125 Z M 187.4375 90.527344" fill="#000000" fill-opacity="1" fill-rule="nonzero"/>
  <path d="M 149.738281 111.289062 C 149.738281 111.289062 149.738281 95.070312 149.738281 93.519531 C 149.738281 91.96875 150.953125 91.253906 151.664062 90.792969 C 145.386719 87.777344 141.246094 84.171875 139.488281 82.371094 C 130.199219 90.960938 123.464844 92.761719 123.464844 92.761719 C 123.464844 92.761719 123.464844 92.761719 123.464844 93.476562 C 125.09375 93.726562 125.054688 95.445312 125.054688 95.445312 C 125.054688 95.445312 125.136719 114.054688 125.136719 114.808594 C 125.136719 115.5625 124.300781 116.316406 123.253906 116.90625 C 124.007812 117.195312 132.542969 123.023438 135.261719 125.035156 C 139.320312 120.84375 150.535156 114.054688 151.664062 113.425781 C 149.695312 112.796875 149.738281 111.289062 149.738281 111.289062 Z M 142.125 118.132812 L 141.371094 118.605469 L 133.058594 114.835938 L 133.058594 89.242188 L 133.839844 88.683594 C 133.839844 88.683594 138.164062 92.007812 142.125 93.265625 C 142.09375 97.792969 142.125 118.132812 142.125 118.132812 Z M 142.125 118.132812" fill="#000000" fill-opacity="1" fill-rule="nonzero"/>
  <path d="M 190.910156 116.777344 L 189.992188 115.730469 L 187.398438 118.121094 L 184.425781 115.355469 L 184.425781 90.289062 L 186.183594 88.363281 L 177.855469 82.371094 L 172.039062 88.796875 L 176.558594 91.210938 L 176.558594 116.402344 L 173.046875 119 L 166.894531 114.722656 L 166.894531 90.667969 L 168.902344 89.160156 L 159.992188 82.371094 L 152.25 90.542969 L 153.296875 91.550781 L 155.472656 89.207031 L 159.027344 91.300781 L 159.027344 115.984375 L 157.078125 117.890625 C 157.078125 117.890625 165.722656 122.4375 168.859375 125.039062 C 171.328125 122.988281 176.683594 118.542969 176.683594 118.542969 L 183.378906 124.828125 C 183.378906 124.824219 187.019531 120.59375 190.910156 116.777344 Z M 190.910156 116.777344" fill="#000000" fill-opacity="1" fill-rule="nonzero"/>
  <path d="M 214.84375 90.625 L 215.761719 91.671875 L 218.355469 89.285156 L 221.328125 92.050781 L 221.328125 117.113281 L 219.570312 119.042969 L 227.898438 125.035156 L 233.710938 118.605469 L 229.195312 116.191406 L 229.195312 91.003906 L 232.707031 88.40625 L 238.859375 92.679688 L 238.859375 116.734375 L 236.847656 118.242188 L 245.761719 125.03125 L 253.503906 116.859375 L 252.457031 115.851562 L 250.28125 118.199219 L 246.722656 116.105469 L 246.722656 91.417969 L 248.671875 89.515625 C 248.671875 89.515625 240.03125 84.964844 236.890625 82.367188 C 234.425781 84.417969 229.066406 88.859375 229.066406 88.859375 L 222.371094 82.574219 C 222.371094 82.578125 218.734375 86.8125 214.84375 90.625 Z M 214.84375 90.625" fill="#000000" fill-opacity="1" fill-rule="nonzero"/>
  <g clip-path="url(#2731ec5a25)">
    <path d="M 284.15625 66.136719 L 284.492188 65.800781 C 284.492188 65.800781 288.5625 66.835938 289.234375 71.027344 C 289.457031 68.933594 291.492188 63.652344 296.570312 62.730469 C 297.933594 62.589844 297.070312 63.234375 296.570312 63.652344 C 296.066406 64.070312 293.554688 67.535156 293.554688 71.027344 C 293.554688 74.519531 293.554688 116.332031 293.554688 116.332031 L 297.304688 118.132812 L 299.484375 115.410156 L 300.90625 116.375 L 293.75 125.222656 L 283.875 119.054688 L 283.875 118.425781 L 285.800781 116.875 L 285.800781 71.320312 C 285.800781 71.320312 285.902344 67.449219 284.15625 66.136719 Z M 284.15625 66.136719" fill="#000000" fill-opacity="1" fill-rule="nonzero"/>
  </g>
  <path d="M 282.984375 115.007812 L 280.421875 117.855469 L 276.796875 115.675781 L 276.796875 91.367188 C 276.796875 91.367188 276.796875 91.367188 278.46875 89.46875 C 269.097656 86.0625 262.960938 82.371094 262.960938 82.371094 L 255.207031 92.152344 L 256.433594 93.214844 L 259.5 89.355469 L 268.816406 92.488281 L 268.828125 98.144531 C 266.695312 98.9375 262.8125 100.566406 260 102.15625 C 256.542969 104.113281 252.972656 106.289062 252.527344 113.554688 C 252.082031 120.820312 258.160156 124.980469 258.160156 124.980469 L 269.039062 118.921875 L 276.566406 124.980469 L 283.875 115.960938 Z M 264.632812 119.699219 C 260.726562 117.074219 259.777344 111.652344 260.671875 107.179688 C 261.757812 103.074219 266.523438 100.726562 268.832031 99.808594 L 268.871094 117.578125 C 268.871094 117.578125 268.871094 117.578125 264.632812 119.699219 Z M 264.632812 119.699219" fill="#000000" fill-opacity="1" fill-rule="nonzero"/>
  <path d="M 122.125 68.890625 C 121.539062 68.050781 121.539062 68.050781 121.539062 68.050781 C 121.539062 68.050781 117.6875 71.320312 112.542969 70.1875 C 107.398438 69.058594 99.074219 66.292969 94.59375 66.125 C 90.117188 65.953125 85.347656 67.214844 84.257812 72.996094 C 83.589844 76.894531 85.429688 80.121094 90.367188 81.421875 L 91.160156 80.625 C 91.160156 80.625 88.984375 79.074219 88.902344 76.894531 C 88.816406 74.714844 90.574219 73.25 92.667969 73.164062 C 94.757812 73.078125 97.226562 74.042969 98.648438 74.460938 C 98.96875 74.558594 99.601562 74.8125 100.449219 75.109375 L 100.449219 90.136719 L 97.269531 93.363281 L 100.449219 96.339844 L 100.449219 115.8125 C 98.144531 114.515625 95.21875 113.484375 91.664062 113.398438 C 84.675781 113.230469 78.816406 115.492188 77.5625 122.367188 C 76.601562 128.402344 79.992188 132.382812 83.378906 133.347656 C 84.046875 132.554688 84.046875 132.554688 84.046875 132.554688 C 84.046875 132.554688 81.535156 131.296875 81.578125 127.773438 C 81.621094 124.253906 83.628906 121.695312 87.6875 120.859375 C 91.742188 120.019531 96.640625 121.027344 99.863281 125.386719 C 103.625 122.492188 108.566406 119.097656 111.578125 116.582031 C 114.339844 114.195312 117.976562 110.171875 117.976562 105.644531 C 117.976562 101.117188 117.976562 78.402344 117.976562 78.402344 C 117.976562 78.402344 117.566406 72.621094 122.125 68.890625 Z M 117.355469 72.285156 C 116.390625 73.332031 108.316406 80.605469 108.316406 88.683594 C 108.316406 96.761719 108.316406 113.105469 108.316406 113.105469 C 108.316406 113.105469 108.484375 118.261719 105.386719 119.726562 C 104.617188 118.894531 103.546875 117.878906 102.171875 116.90625 L 102.171875 96.339844 L 105.304688 93.195312 L 102.164062 90.050781 L 102.164062 75.652344 C 105.21875 76.53125 109.539062 77.179688 112.789062 74.835938 C 117.351562 71.691406 117.351562 71.691406 117.351562 71.691406 C 117.351562 71.691406 118.316406 71.238281 117.355469 72.285156 Z M 117.355469 72.285156" fill="#000000" fill-opacity="1" fill-rule="nonzero"/>
</svg>